<svg aria-hidden="true" style="position: absolute; width: 0; height: 0; overflow: hidden;" version="1.1" xmlns="http://www.w3.org/2000/svg" xmlns:xlink="http://www.w3.org/1999/xlink">
<defs>
<symbol id="icon-empty-star" viewBox="0 0 32 32">
<title>empty-star</title>
<path d="M29.333 12.32l-9.587-0.827-3.747-8.827-3.747 8.84-9.587 0.813 7.28 6.307-2.187 9.373 8.24-4.973 8.24 4.973-2.173-9.373 7.267-6.307zM16 20.533l-5.013 3.027 1.333-5.707-4.427-3.84 5.84-0.507 2.267-5.373 2.28 5.387 5.84 0.507-4.427 3.84 1.333 5.707-5.027-3.040z"></path>
</symbol>
<symbol id="icon-star" viewBox="0 0 32 32">
<title>star</title>
<path d="M16 23.027l8.24 4.973-2.187-9.373 7.28-6.307-9.587-0.813-3.747-8.84-3.747 8.84-9.587 0.813 7.28 6.307-2.187 9.373z"></path>
</symbol>
<symbol id="icon-half-star" viewBox="0 0 32 32">
<title>half-star</title>
<path d="M29.333 12.32l-9.587-0.827-3.747-8.827-3.747 8.84-9.587 0.813 7.28 6.307-2.187 9.373 8.24-4.973 8.24 4.973-2.173-9.373 7.267-6.307zM16 20.533v-12.4l2.28 5.387 5.84 0.507-4.427 3.84 1.333 5.707-5.027-3.040z"></path>
</symbol>
<symbol id="icon-right-angle" viewBox="0 0 32 32">
<title>right-angle</title>
<path d="M11.453 22.12l6.107-6.12-6.107-6.12 1.88-1.88 8 8-8 8-1.88-1.88z"></path>
</symbol>
<symbol id="icon-location-pin" viewBox="0 0 20 20">
<title>location-pin</title>
<path d="M10 2.009c-2.762 0-5 2.229-5 4.99 0 4.774 5 11 5 11s5-6.227 5-11c0-2.76-2.238-4.99-5-4.99zM10 9.76c-1.492 0-2.7-1.209-2.7-2.7s1.208-2.7 2.7-2.7c1.49 0 2.699 1.209 2.699 2.7s-1.209 2.7-2.699 2.7z"></path>
</symbol>
<symbol id="icon-mail" viewBox="0 0 20 20">
<title>mail</title>
<path d="M1.574 5.286c0.488 0.262 7.248 3.894 7.5 4.029s0.578 0.199 0.906 0.199c0.328 0 0.654-0.064 0.906-0.199s7.012-3.767 7.5-4.029c0.489-0.263 0.951-1.286 0.054-1.286h-16.919c-0.897 0-0.435 1.023 0.053 1.286zM18.613 7.489c-0.555 0.289-7.387 3.849-7.727 4.027s-0.578 0.199-0.906 0.199-0.566-0.021-0.906-0.199-7.133-3.739-7.688-4.028c-0.39-0.204-0.386 0.035-0.386 0.219s0 7.293 0 7.293c0 0.42 0.566 1 1 1h16c0.434 0 1-0.58 1-1 0 0 0-7.108 0-7.292s0.004-0.423-0.387-0.219z"></path>
</symbol>
<symbol id="icon-phone" viewBox="0 0 20 20">
<title>phone</title>
<path d="M11.229 11.229c-1.583 1.582-3.417 3.096-4.142 2.371-1.037-1.037-1.677-1.941-3.965-0.102-2.287 1.838-0.53 3.064 0.475 4.068 1.16 1.16 5.484 0.062 9.758-4.211 4.273-4.274 5.368-8.598 4.207-9.758-1.005-1.006-2.225-2.762-4.063-0.475s-0.936 2.927 0.103 3.965c0.722 0.725-0.791 2.559-2.373 4.142z"></path>
</symbol>
</defs>
</svg>
